<?xml version="1.0" encoding="UTF-8" standalone="no"?>
<!-- Created with Inkscape (http://www.inkscape.org/) -->

<svg
   xmlns:dc="http://purl.org/dc/elements/1.1/"
   xmlns:cc="http://creativecommons.org/ns#"
   xmlns:rdf="http://www.w3.org/1999/02/22-rdf-syntax-ns#"
   xmlns:svg="http://www.w3.org/2000/svg"
   xmlns="http://www.w3.org/2000/svg"
   xmlns:sodipodi="http://sodipodi.sourceforge.net/DTD/sodipodi-0.dtd"
   xmlns:inkscape="http://www.inkscape.org/namespaces/inkscape"
   width="440.57831mm"
   height="299.21042mm"
   viewBox="0 0 440.57831 299.21042"
   version="1.1"
   id="svg1025"
   inkscape:version="0.92.3 (2405546, 2018-03-11)"
   sodipodi:docname="sql.svg">
  <defs
     id="defs1019" />
  <sodipodi:namedview
     id="base"
     pagecolor="#ffffff"
     bordercolor="#666666"
     borderopacity="1.0"
     inkscape:pageopacity="0.0"
     inkscape:pageshadow="2"
     inkscape:zoom="0.24748737"
     inkscape:cx="191.67893"
     inkscape:cy="711.32247"
     inkscape:document-units="mm"
     inkscape:current-layer="layer1"
     showgrid="false"
     inkscape:window-width="1299"
     inkscape:window-height="713"
     inkscape:window-x="67"
     inkscape:window-y="27"
     inkscape:window-maximized="1" />
  <metadata
     id="metadata1022">
    <rdf:RDF>
      <cc:Work
         rdf:about="">
        <dc:format>image/svg+xml</dc:format>
        <dc:type
           rdf:resource="http://purl.org/dc/dcmitype/StillImage" />
        <dc:title></dc:title>
      </cc:Work>
    </rdf:RDF>
  </metadata>
  <g
     inkscape:label="Layer 1"
     inkscape:groupmode="layer"
     id="layer1"
     transform="translate(117.12312,-22.344252)">
    <g
       id="g1610"
       transform="matrix(0.94932166,0,0,0.94932166,-5.9356055,1.1323696)">
      <path
         id="path991"
         d="M -5.5460882,309.47765 H -23.453638 c -0.633251,-30.22655 -2.377292,-58.6433 -5.228659,-85.27105 h -0.159179 l -27.264466,85.27105 H -69.739905 L -96.841732,224.2066 h -0.155718 c -2.010491,25.56541 -3.277,53.98908 -3.80298,85.27105 h -16.32269 c 1.05196,-38.04013 3.69571,-73.70294 7.92085,-106.99196 h 22.194985 l 25.831863,78.61672 h 0.159176 l 25.991042,-78.61672 h 21.236456 c 4.6507698,38.99175 7.3983298,74.65802 8.2426598,106.99196 M 72.115602,230.53913 c -7.29106,39.56614 -16.91096,68.3151 -28.84933,86.26073 -9.30155,13.8139 -19.49242,20.72778 -30.58991,20.72778 -2.9586302,0 -6.6093602,-0.89279 -10.9348502,-2.66452 v -9.54029 c 2.1143,0.30451 4.59541,0.47752 7.44677,0.47752 5.1836802,0 9.3499902,-1.42568 12.5266402,-4.28397 3.79951,-3.48115 5.69927,-7.39487 5.69927,-11.72382 0,-2.96902 -1.48105,-9.03857 -4.43623,-18.22937 L 3.3263718,230.53567 H 20.919032 l 14.10457,45.6426 c 3.16973,10.36388 4.4916,17.59956 3.96216,21.7209 7.71322,-20.59974 13.10106,-43.06114 16.17044,-67.36696 h 16.9594 z"
         inkscape:connector-curvature="0"
         style="fill:#5d87a1;stroke-width:3.46039677" />
      <path
         id="path993"
         d="M 310.48503,309.47765 H 259.61719 V 202.48569 h 17.11167 v 93.82172 h 33.75617 z m -64.18344,2.58493 -19.66889,-9.7064 c 1.74403,-1.43261 3.41194,-2.98289 4.91376,-4.77883 8.36031,-9.82059 12.53009,-24.34388 12.53009,-43.58019 0,-35.3964 -13.89002,-53.10325 -41.68048,-53.10325 -13.62704,0 -24.25737,4.49159 -31.85988,13.47824 -8.3534,9.82753 -12.52315,24.29891 -12.52315,43.43144 0,18.80723 3.6957,32.60382 11.09057,41.35518 6.76507,7.92776 16.96286,11.89683 30.60028,11.89683 5.08677,0 9.75487,-0.62286 14.00767,-1.87899 l 25.60696,14.90739 z m -63.71627,-23.9944 c -4.33242,-6.96923 -6.49865,-18.16015 -6.49865,-33.59003 0,-26.93919 8.18386,-40.42435 24.56882,-40.42435 8.56448,0 14.84164,3.22509 18.85571,9.66143 4.32549,6.97961 6.50209,18.07019 6.50209,33.28555 0,27.16062 -8.19076,40.74268 -24.56535,40.74268 -8.56795,0.003 -14.84511,-3.21125 -18.86262,-9.67528 m -32.02946,-8.24612 c 0,9.07315 -3.32889,16.51649 -9.97977,22.34724 -6.6578,5.80655 -15.58563,8.71675 -26.77309,8.71675 -10.46424,0 -20.610118,-3.34274 -30.430728,-9.99363 l 4.59887,-9.18736 c 8.45029,4.23206 16.101218,6.336 22.970108,6.336 6.44672,0 11.48506,-1.42914 15.13924,-4.26323 3.65072,-2.84443 5.82731,-6.83427 5.82731,-11.87953 0,-6.35675 -4.43277,-11.78957 -12.56471,-16.33999 -7.49867,-4.11784 -22.496038,-12.72731 -22.496038,-12.72731 -8.12847,-5.9242 -12.19789,-12.28441 -12.19789,-22.76249 0,-8.67175 3.03476,-15.67213 9.10776,-20.99768 6.07992,-5.34632 13.924638,-8.01082 23.541078,-8.01082 9.93134,0 18.95951,2.66104 27.09145,7.92777 l -4.1248,9.19081 c -6.9554,-2.95518 -13.82082,-4.43277 -20.59282,-4.43277 -5.48473,0 -9.72025,1.31841 -12.66505,3.96562 -2.96902,2.63682 -4.79957,6.0107 -4.79957,10.14934 0,6.32561 4.5262,11.82763 12.87959,16.46803 7.59904,4.12479 22.97012,12.88305 22.97012,12.88305 8.3361,5.91379 12.49894,12.21517 12.49894,22.6102"
         inkscape:connector-curvature="0"
         style="fill:#f8981d;stroke-width:3.46039677" />
      <path
         id="path995"
         d="m 331.96716,166.64982 c -10.34658,-0.26299 -18.3574,0.77859 -25.08094,3.62304 -1.9413,0.77513 -5.02795,0.77513 -5.29788,3.22855 1.04852,1.03812 1.16962,2.71295 2.0797,4.14555 1.55028,2.58492 4.25284,6.06262 6.7201,7.87586 2.70949,2.07624 5.42936,4.13172 8.28072,5.94151 5.02796,3.11089 10.72724,4.92068 15.62717,8.02119 2.85482,1.80287 5.69235,4.13518 8.55064,6.07646 1.40491,1.03466 2.30463,2.71295 4.12824,3.36005 v -0.39449 c -0.91355,-1.16269 -1.17308,-2.84444 -2.0693,-4.13863 l -3.88258,-3.74415 c -3.75108,-5.03834 -8.41222,-9.4365 -13.44017,-13.04916 -4.13864,-2.85136 -13.19104,-6.72701 -14.86932,-11.49543 l -0.263,-0.263 c 2.84443,-0.26645 6.21832,-1.29764 8.92091,-2.09008 4.39817,-1.15923 8.40875,-0.89624 12.92111,-2.05547 2.07624,-0.51906 4.13517,-1.16961 6.21834,-1.80979 v -1.16615 c -2.33923,-2.32885 -4.00714,-5.42244 -6.4675,-7.62326 -6.58167,-5.68543 -13.83466,-11.24628 -21.32986,-15.90052 -4.01407,-2.59184 -9.17699,-4.25975 -13.45057,-6.46402 -1.53988,-0.77859 -4.13517,-1.16269 -5.04179,-2.45688 -2.31847,-2.84445 -3.62305,-6.5886 -5.30479,-9.95556 -3.73724,-7.1042 -7.3672,-14.98698 -10.59228,-22.4995 -2.3323,-5.038339 -3.75108,-10.069756 -6.59553,-14.73091 C 258.40606,67.111509 243.93814,53.802811 221.70164,40.739812 216.92281,38.01994 211.23739,36.860707 205.16438,35.435024 l -9.69949,-0.512139 c -2.06931,-0.906624 -4.14208,-3.366966 -5.94842,-4.52966 -7.37756,-4.650773 -26.37168,-14.730909 -31.79757,-1.422223 -3.49501,8.412225 5.16983,16.682573 8.14576,20.949242 2.19736,2.9621 5.04526,6.332526 6.58169,9.696047 0.91009,2.197352 1.16615,4.529659 2.07624,6.851584 2.06931,5.688894 4.00368,12.01796 6.72354,17.326208 1.41877,2.706029 2.96556,5.550477 4.7788,8.000436 1.03812,1.432605 2.84445,2.065857 3.23895,4.401625 -1.80287,2.574536 -1.94474,6.460556 -2.97942,9.692566 -4.65077,14.60634 -2.83406,32.70075 3.75801,43.43491 2.0624,3.232 6.98307,10.34658 13.56473,7.61979 5.82732,-2.32539 4.5366,-9.69257 6.21142,-16.15313 0.38412,-1.56064 0.13149,-2.58492 0.90664,-3.6092 v 0.25261 c 1.80285,3.61612 3.62302,7.10073 5.2944,10.72723 4.0106,6.32907 10.99367,12.92458 16.81061,17.30891 3.09706,2.33923 5.55046,6.33944 9.42957,7.76859 v -0.38757 h -0.25606 c -0.7855,-1.15923 -1.93437,-1.67829 -2.96556,-2.57799 -2.3323,-2.32885 -4.91376,-5.1733 -6.72357,-7.75475 -5.41895,-7.24261 -10.21508,-15.26035 -14.47135,-23.53416 -2.08317,-4.01406 -3.87911,-8.40184 -5.55742,-12.40898 -0.78203,-1.5468 -0.78203,-3.87911 -2.07968,-4.6577 -1.94476,2.84099 -4.77882,5.30133 -6.19757,8.78249 -2.46036,5.56778 -2.71642,12.4159 -3.62998,19.5374 l -0.50866,0.24915 c -4.11787,-1.03466 -5.55048,-5.29441 -7.11457,-8.91052 -3.8722,-9.1839 -4.52276,-23.92518 -1.16271,-34.52092 0.89972,-2.70949 4.79267,-11.24283 3.23893,-13.824285 -0.77857,-2.474185 -3.36696,-3.882567 -4.78571,-5.830768 -1.66793,-2.449963 -3.49501,-5.550477 -4.6577,-8.270349 -3.10052,-7.23569 -4.66116,-15.25343 -8.00044,-22.485672 -1.56065,-3.370427 -4.27014,-6.858506 -6.46401,-9.962483 -2.46383,-3.48808 -5.17332,-5.944961 -7.1215,-10.080136 -0.64365,-1.422223 -1.5468,-3.747609 -0.51215,-5.294407 0.25262,-1.038119 0.77859,-1.425683 1.8098,-1.685213 1.67481,-1.415302 6.46054,0.384104 8.13885,1.162693 4.79264,1.937822 8.79978,3.74761 12.80001,6.460561 1.80978,1.297649 3.75105,3.754531 6.07298,4.401625 h 2.71987 c 4.12826,0.899703 8.7825,0.249148 12.66851,1.418762 6.84813,2.200813 13.05264,5.429363 18.61696,8.913983 16.93172,10.737625 30.89441,25.994513 40.32054,44.216963 1.54678,2.969022 2.20427,5.688896 3.61611,8.785946 2.72333,6.33945 6.09029,12.80347 8.79287,19.00796 2.7164,6.073 5.30479,12.27403 9.18388,17.31929 1.93437,2.71295 9.70642,4.13517 13.19104,5.55739 2.57799,1.15924 6.59206,2.19043 8.91743,3.61266 4.39817,2.70949 8.77904,5.82039 12.91421,8.79979 2.05894,1.55025 8.52988,4.78226 8.91397,7.37064 M 200.10529,54.311488 a 20.139509,20.139509 0 0 0 -5.29093,0.650555 v 0.25953 h 0.24913 c 1.04159,2.065856 2.85136,3.498461 4.14211,5.301342 1.04158,2.072778 1.94474,4.128252 2.96555,6.197569 l 0.24916,-0.25607 c 1.82361,-1.290727 2.73024,-3.360044 2.73024,-6.464019 -0.7855,-0.913559 -0.90663,-1.806342 -1.56062,-2.712966 -0.76132,-1.294188 -2.43959,-1.937822 -3.48464,-2.975941"
         inkscape:connector-curvature="0"
         style="fill:#5d87a1;stroke-width:3.46039677" />
      <path
         id="path997"
         d="m 344.27926,309.46037 h 2.67835 v -13.10798 h -4.01752 l -3.27699,8.94511 -3.56076,-8.94511 h -3.86872 v 13.10798 h 2.52955 v -9.97288 h 0.14187 l 3.73031,9.97288 h 1.92744 l 3.71647,-9.97288 z m -21.57556,0 h 2.83406 v -10.88641 h 3.70954 v -2.22504 h -10.40887 v 2.22504 h 3.85834 z"
         inkscape:connector-curvature="0"
         style="fill:#f8981d;stroke-width:3.46039677" />
    </g>
  </g>
</svg>
